<svg width="500" height="250" viewBox="0 0 500 250" xmlns="http://www.w3.org/2000/svg">
  <g fill="#FFFFFF">
    <path d="M120,80 C150,80 170,105 170,140 C170,175 150,200 120,200 C105,200 95,190 90,180 L90,230 C90,240 85,245 75,245 C65,245 60,240 60,230 L60,95 C60,85 65,80 75,80 L85,80 L85,100 C95,85 105,80 120,80 Z M115,110 C100,110 90,120 90,140 C90,160 100,170 115,170 C130,170 140,160 140,140 C140,120 130,110 115,110 Z"/>
    
    <rect x="190" y="30" width="30" height="170" rx="15"/>
    
    <rect x="245" y="85" width="30" height="115" rx="15"/>
    <circle cx="260" cy="50" r="17"/>
    
    <path d="M300,95 C300,85 305,80 315,80 L325,80 L325,105 C335,85 355,80 375,80 C405,80 430,100 430,145 L430,185 C430,195 425,200 415,200 C405,200 400,195 400,185 L400,145 C400,125 390,110 370,110 C350,110 330,125 330,150 L330,185 C330,195 325,200 315,200 C305,200 300,195 300,185 L300,95 Z"/>
  </g>
</svg>
